<svg version="1.1" id="Layer_1" xmlns="http://www.w3.org/2000/svg" xmlns:xlink="http://www.w3.org/1999/xlink" x="0px" y="0px"
	 viewBox="0 0 193 48.5" style="enable-background:new 0 0 193 48.5;" xml:space="preserve">
<style type="text/css">
	.st0{fill:#5F709C;}
	.st1{fill:#231F20;}
</style>
<polygon class="st0" points="11.8,0 0.1,15.8 2.9,15.8 12.2,4.6 22.4,15.8 83.1,15.8 "/>
<polygon class="st0" points="0,48.5 0,42.9 110.1,42.9 110.1,43.7 "/>
<path class="st0" d="M4,19.3h13.9c1.1,0,2,0.4,2.8,1.1c0.8,0.8,1.1,1.7,1.1,2.8V37c0,1.1-0.4,2-1.1,2.8c-0.8,0.8-1.7,1.1-2.8,1.1H4
	c-1.1,0-2-0.4-2.8-1.1C0.4,39,0.1,38.1,0.1,37V23.2c0-1.1,0.4-2,1.1-2.8C2,19.7,2.9,19.3,4,19.3z M4,37.7h13.9
	c0.2,0,0.3-0.1,0.5-0.2c0.1-0.1,0.2-0.3,0.2-0.5V23.2c0-0.2-0.1-0.3-0.2-0.5c-0.1-0.1-0.3-0.2-0.5-0.2H4c-0.2,0-0.3,0.1-0.5,0.2
	c-0.1,0.1-0.2,0.3-0.2,0.5V37c0,0.2,0.1,0.3,0.2,0.5C3.7,37.6,3.8,37.7,4,37.7z"/>
<path class="st1" d="M38.8,23.5h3.9V24l-7.5,8.3l7.5,8.3v0.5h-3.9L32.3,34h-3.9v7.1h-3.3V17.8h3.3v12.8h3.9L38.8,23.5z"/>
<path class="st1" d="M79.1,23.5c1.1,0,2,0.4,2.8,1.1c0.8,0.8,1.1,1.7,1.1,2.8v13.5H69.2c-1.1,0-2-0.4-2.8-1.1
	c-0.8-0.8-1.1-1.7-1.1-2.8v-6.4h14.5v-3.2c0-0.2-0.1-0.3-0.2-0.5c-0.1-0.1-0.3-0.2-0.5-0.2H65.3v-3.2H79.1z M79.8,37.7v-3.8H68.5
	v3.2c0,0.2,0.1,0.3,0.2,0.5c0.1,0.1,0.3,0.2,0.5,0.2h10.6V37.7z"/>
<path class="st0" d="M106.7,29.3c0.9,0.8,1.3,1.7,1.3,2.9V37c0,1.1-0.4,2-1.1,2.8c-0.8,0.8-1.7,1.1-2.8,1.1H90.2
	c-1.1,0-2-0.4-2.8-1.1c-0.8-0.8-1.1-1.7-1.1-2.8v-0.9h3.3V37c0,0.2,0.1,0.3,0.2,0.5c0.1,0.1,0.3,0.2,0.5,0.2H104
	c0.2,0,0.3-0.1,0.5-0.2c0.1-0.1,0.2-0.3,0.2-0.5v-4.8c0-0.2-0.1-0.3-0.2-0.5c-0.1-0.1-0.3-0.2-0.5-0.2H90.2v-3.2h13
	c0.2,0,0.3-0.1,0.5-0.2c0.1-0.1,0.2-0.3,0.2-0.5v-4.4c0-0.2-0.1-0.3-0.2-0.5c-0.1-0.1-0.3-0.2-0.5-0.2h-13c-0.2,0-0.3,0.1-0.5,0.2
	c-0.1,0.1-0.2,0.3-0.2,0.5v1.2h-3.3v-1.2c0-1.1,0.4-2,1.1-2.8c0.8-0.8,1.7-1.1,2.8-1.1h13c1.1,0,2,0.4,2.8,1.1
	c0.8,0.8,1.1,1.7,1.1,2.8v4.4C107,28.2,106.9,28.7,106.7,29.3z"/>
<path class="st1" d="M125,23.5c1.1,0,2,0.4,2.8,1.1c0.8,0.8,1.1,1.7,1.1,2.8v13.5H115c-1.1,0-2-0.4-2.8-1.1
	c-0.8-0.8-1.1-1.7-1.1-2.8v-6.4h14.5v-3.2c0-0.2-0.1-0.3-0.2-0.5c-0.1-0.1-0.3-0.2-0.5-0.2H111v-3.2H125z M125.7,37.7v-3.8h-11.3
	v3.2c0,0.2,0.1,0.3,0.2,0.5c0.1,0.1,0.3,0.2,0.5,0.2h10.6V37.7z"/>
<path class="st1" d="M146,23.5c1.1,0,2,0.4,2.8,1.1c0.8,0.8,1.1,1.7,1.1,2.8v13.5h-3.3V27.4c0-0.2-0.1-0.3-0.2-0.5
	c-0.1-0.1-0.3-0.2-0.5-0.2h-10c-0.2,0-0.3,0.1-0.5,0.2c-0.1,0.1-0.2,0.3-0.2,0.5v13.5h-3.3V23.5H146z"/>
<path class="st1" d="M166.9,23.5c1.1,0,2,0.4,2.8,1.1c0.8,0.8,1.1,1.7,1.1,2.8v13.5H157c-1.1,0-2-0.4-2.8-1.1
	c-0.8-0.8-1.1-1.7-1.1-2.8v-6.4h14.5v-3.2c0-0.2-0.1-0.3-0.2-0.5c-0.1-0.1-0.3-0.2-0.5-0.2H153v-3.2H166.9z M167.6,37.7v-3.8h-11.3
	v3.2c0,0.2,0.1,0.3,0.2,0.5c0.1,0.1,0.3,0.2,0.5,0.2h10.6V37.7z"/>
<path class="st1" d="M59.2,23.5h3.3v17.4h-3.3v-7.2H47.9v7.2h-3.3V23.5h3.3v7h11.3V23.5z"/>
<path class="st1" d="M193,40.9v-3.3h-1.9V23.5h-10.2c-2.3,0-4.1,1.7-4.3,4l-0.4,5.9c-0.1,1.6-0.3,2.2-0.6,3
	c-0.3,0.7-0.6,1.1-1.1,1.3h-1.1V41L193,40.9L193,40.9z M179,36.1c0.2-0.9,0.4-1.4,0.4-2.8l0.4-5.4c0.1-0.9,0.8-1.6,1.8-1.6h6.3v11.4
	h-9.6C178.6,37.2,178.8,36.6,179,36.1z"/>
</svg>
